<?xml version="1.0" encoding="UTF-8" standalone="no"?><!DOCTYPE svg PUBLIC "-//W3C//DTD SVG 1.1//EN" "http://www.w3.org/Graphics/SVG/1.1/DTD/svg11.dtd"><svg width="100%" height="100%" viewBox="0 0 515 124" version="1.1" xmlns="http://www.w3.org/2000/svg" xmlns:xlink="http://www.w3.org/1999/xlink" xml:space="preserve" xmlns:serif="http://www.serif.com/" style="fill-rule:evenodd;clip-rule:evenodd;stroke-linejoin:round;stroke-miterlimit:1.41421;"><g><path d="M188.165,34.432l13.78,0l-1.33,9.308l0.242,0c1.773,-2.902 4.231,-5.42 7.373,-7.555c3.143,-2.136 7.132,-3.203 11.967,-3.203c3.868,0 7.071,0.644 9.61,1.934c2.538,1.289 4.492,2.981 5.862,5.076c1.37,2.096 2.216,4.513 2.539,7.253c0.322,2.74 0.282,5.601 -0.121,8.582l-5.077,36.626l-14.505,0l4.11,-29.373c0.241,-1.612 0.403,-3.405 0.483,-5.379c0.081,-1.975 -0.101,-3.828 -0.544,-5.561c-0.443,-1.732 -1.309,-3.183 -2.599,-4.351c-1.289,-1.169 -3.183,-1.753 -5.681,-1.753c-2.417,0 -4.513,0.403 -6.285,1.209c-1.773,0.806 -3.284,1.894 -4.533,3.264c-1.249,1.37 -2.257,2.941 -3.022,4.714c-0.766,1.773 -1.269,3.626 -1.511,5.56l-4.352,31.67l-14.505,0l8.099,-58.021Z" style="fill:#5c5c5c;fill-rule:nonzero;"/><path d="M257.789,34.432l14.506,0l-8.099,58.021l-14.505,0l8.098,-58.021Zm0.726,-19.703c0.322,-2.337 1.47,-4.371 3.445,-6.104c1.974,-1.733 4.291,-2.599 6.95,-2.599c2.659,0 4.795,0.826 6.407,2.478c1.611,1.652 2.216,3.727 1.813,6.225c-0.403,2.498 -1.612,4.573 -3.627,6.225c-2.014,1.652 -4.351,2.478 -7.01,2.478c-2.66,0 -4.735,-0.866 -6.226,-2.598c-1.49,-1.733 -2.075,-3.768 -1.752,-6.105Z" style="fill:#5c5c5c;fill-rule:nonzero;"/><path d="M288.975,34.432l13.78,0l-1.208,8.703l0.241,0c2.579,-3.546 5.762,-6.124 9.55,-7.736c3.787,-1.612 7.736,-2.417 11.845,-2.417c4.433,0 8.321,0.785 11.665,2.357c3.344,1.571 6.044,3.727 8.099,6.467c2.054,2.739 3.465,5.963 4.23,9.67c0.766,3.706 0.867,7.695 0.302,11.966c-0.644,4.271 -1.893,8.26 -3.747,11.967c-1.853,3.707 -4.21,6.93 -7.071,9.67c-2.861,2.74 -6.124,4.896 -9.791,6.467c-3.666,1.571 -7.555,2.357 -11.664,2.357c-2.74,0 -5.118,-0.282 -7.132,-0.846c-2.015,-0.564 -3.767,-1.289 -5.258,-2.176c-1.491,-0.886 -2.72,-1.833 -3.687,-2.84c-0.967,-1.008 -1.773,-1.995 -2.417,-2.962l-0.363,0l-4.956,34.933l-14.505,0l12.087,-85.58Zm43.999,29.01c0.323,-2.256 0.242,-4.432 -0.241,-6.527c-0.484,-2.095 -1.35,-3.949 -2.599,-5.56c-1.249,-1.612 -2.861,-2.901 -4.835,-3.868c-1.975,-0.967 -4.291,-1.451 -6.951,-1.451c-2.659,0 -5.097,0.484 -7.313,1.451c-2.216,0.967 -4.17,2.256 -5.862,3.868c-1.692,1.611 -3.082,3.465 -4.17,5.56c-1.088,2.095 -1.793,4.271 -2.116,6.527c-0.322,2.257 -0.241,4.432 0.242,6.528c0.484,2.095 1.35,3.948 2.599,5.56c1.249,1.612 2.861,2.901 4.835,3.868c1.974,0.967 4.291,1.45 6.95,1.45c2.66,0 5.117,-0.483 7.374,-1.45c2.256,-0.967 4.23,-2.256 5.923,-3.868c1.692,-1.612 3.062,-3.465 4.109,-5.56c1.048,-2.096 1.733,-4.271 2.055,-6.528Z" style="fill:#5c5c5c;fill-rule:nonzero;"/><path d="M393.775,50.509c-2.256,-3.949 -5.762,-5.923 -10.516,-5.923c-0.967,0 -1.975,0.121 -3.022,0.362c-1.048,0.242 -2.015,0.605 -2.901,1.088c-0.887,0.484 -1.632,1.128 -2.236,1.934c-0.605,0.806 -0.988,1.733 -1.149,2.78c-0.241,1.773 0.343,3.063 1.753,3.868c1.41,0.806 3.243,1.491 5.5,2.055c2.256,0.564 4.694,1.149 7.313,1.753c2.619,0.604 4.996,1.531 7.132,2.78c2.135,1.249 3.827,2.962 5.076,5.137c1.249,2.176 1.592,5.158 1.028,8.945c-0.484,3.465 -1.632,6.386 -3.445,8.764c-1.813,2.377 -4.009,4.291 -6.588,5.741c-2.579,1.451 -5.399,2.498 -8.461,3.143c-3.062,0.645 -6.084,0.967 -9.066,0.967c-4.513,0 -8.582,-0.645 -12.208,-1.934c-3.627,-1.289 -6.689,-3.626 -9.187,-7.011l11,-9.065c1.611,2.095 3.364,3.807 5.258,5.137c1.894,1.329 4.371,1.994 7.434,1.994c1.047,0 2.155,-0.121 3.324,-0.362c1.168,-0.242 2.276,-0.645 3.324,-1.209c1.047,-0.564 1.934,-1.269 2.659,-2.116c0.725,-0.846 1.169,-1.833 1.33,-2.961c0.322,-2.015 -0.222,-3.505 -1.632,-4.472c-1.41,-0.967 -3.244,-1.753 -5.5,-2.357c-2.256,-0.605 -4.694,-1.169 -7.313,-1.693c-2.619,-0.524 -5.016,-1.37 -7.192,-2.538c-2.176,-1.169 -3.888,-2.8 -5.137,-4.896c-1.249,-2.095 -1.592,-4.996 -1.028,-8.703c0.484,-3.223 1.552,-6.023 3.204,-8.401c1.651,-2.377 3.686,-4.331 6.104,-5.862c2.417,-1.531 5.077,-2.659 7.978,-3.385c2.901,-0.725 5.802,-1.087 8.703,-1.087c3.868,0 7.595,0.664 11.181,1.994c3.586,1.33 6.305,3.606 8.159,6.83l-10.879,8.703Z" style="fill:#5c5c5c;fill-rule:nonzero;"/><path d="M425.565,68.519c-0.08,2.176 0.222,4.11 0.907,5.802c0.685,1.692 1.632,3.123 2.84,4.291c1.209,1.169 2.66,2.075 4.352,2.72c1.692,0.645 3.546,0.967 5.56,0.967c3.627,0 6.79,-0.745 9.489,-2.236c2.7,-1.491 5.097,-3.365 7.192,-5.621l9.308,7.857c-3.949,4.19 -8.139,7.172 -12.571,8.945c-4.433,1.773 -8.945,2.659 -13.539,2.659c-4.351,0 -8.36,-0.725 -12.027,-2.176c-3.666,-1.45 -6.728,-3.505 -9.186,-6.164c-2.458,-2.66 -4.251,-5.863 -5.379,-9.61c-1.128,-3.747 -1.37,-7.917 -0.726,-12.511c0.645,-4.593 2.055,-8.763 4.231,-12.51c2.176,-3.748 4.875,-6.951 8.099,-9.61c3.223,-2.659 6.87,-4.714 10.939,-6.165c4.07,-1.45 8.28,-2.175 12.632,-2.175c8.139,0 14.303,2.719 18.494,8.159c4.19,5.439 5.6,13.236 4.23,23.389l-0.604,3.989l-44.241,0Zm31.307,-10.879c0.564,-4.271 -0.282,-7.635 -2.538,-10.093c-2.257,-2.458 -5.681,-3.687 -10.275,-3.687c-4.351,0 -7.977,1.249 -10.878,3.748c-2.902,2.498 -4.916,5.842 -6.044,10.032l29.735,0Z" style="fill:#5c5c5c;fill-rule:nonzero;"/><path d="M493.135,1.07l14.505,0l-12.813,91.383l-14.505,0l12.813,-91.383Z" style="fill:#5c5c5c;fill-rule:nonzero;"/></g><g><path d="M17.054,63.963l13.92,20.76l-10.92,7.32l-19.08,-28.08l19.08,-28.08l10.92,7.32l-13.92,20.76Z" style="fill:#0064b7;fill-rule:nonzero;stroke:#0066ba;stroke-width:0.24px;"/><path d="M104.757,121.403l-14.505,0l4.956,-34.933l-0.362,0c-0.887,0.967 -1.955,1.954 -3.204,2.961c-1.249,1.008 -2.74,1.955 -4.472,2.841c-1.733,0.886 -3.687,1.612 -5.863,2.176c-2.175,0.564 -4.633,0.846 -7.373,0.846c-4.11,0 -7.776,-0.786 -11,-2.357c-3.223,-1.572 -5.882,-3.727 -7.978,-6.467c-2.095,-2.74 -3.585,-5.963 -4.472,-9.67c-0.886,-3.707 -1.007,-7.696 -0.363,-11.967c0.565,-4.271 1.773,-8.26 3.627,-11.967c1.853,-3.706 4.21,-6.93 7.071,-9.67c2.861,-2.739 6.165,-4.895 9.912,-6.466c3.747,-1.572 7.877,-2.358 12.39,-2.358c4.109,0 7.816,0.806 11.12,2.418c3.304,1.612 5.762,4.19 7.374,7.736l0.241,0l1.209,-8.703l13.78,0l-12.088,85.58Zm-40.13,-56.57c-0.323,2.257 -0.242,4.432 0.241,6.527c0.484,2.096 1.35,3.949 2.599,5.561c1.249,1.611 2.861,2.901 4.835,3.868c1.975,0.967 4.291,1.45 6.951,1.45c2.659,0 5.117,-0.483 7.373,-1.45c2.256,-0.967 4.231,-2.257 5.923,-3.868c1.692,-1.612 3.062,-3.465 4.11,-5.561c1.047,-2.095 1.732,-4.27 2.055,-6.527c0.322,-2.256 0.241,-4.432 -0.242,-6.527c-0.484,-2.095 -1.35,-3.949 -2.599,-5.56c-1.249,-1.612 -2.861,-2.901 -4.835,-3.868c-1.974,-0.967 -4.291,-1.451 -6.95,-1.451c-2.66,0 -5.097,0.484 -7.313,1.451c-2.216,0.967 -4.171,2.256 -5.863,3.868c-1.692,1.611 -3.082,3.465 -4.17,5.56c-1.088,2.095 -1.793,4.271 -2.115,6.527Z" style="fill:#0064b7;fill-rule:nonzero;stroke:#0066ba;stroke-width:0.24px;"/><path d="M149.445,63.963l-13.92,-20.76l10.92,-7.32l19.08,28.08l-19.08,28.08l-10.92,-7.32l13.92,-20.76Z" style="fill:#0064b7;fill-rule:nonzero;stroke:#0066ba;stroke-width:0.24px;"/></g></svg>