<svg xmlns="http://www.w3.org/2000/svg" viewBox="0 0 339.34 87.86"><defs><style>.cls-1{fill:#36a9e1;}.cls-2{fill:#f6f6f6;}</style></defs><title>Asset 1</title><g id="Layer_2" data-name="Layer 2"><g id="Layer_1-2" data-name="Layer 1"><path class="cls-1" d="M0,35.56,6.38.5H60.86l6.48,35.06L60.86,70.72H43V87.86H24V70.72H6.38ZM44.33,14.84H22.91L19.12,35.56l3.79,20.82H44.33l3.78-20.82Z"/><path class="cls-2" d="M105.68,34.76H94.52v36H76.59v-36H70.82V21.22h51.3l4.68,49.5H109.07Z"/><path class="cls-2" d="M130,21.22h23.61v49.5H135.76v-36H130ZM136,.5h16.53v15H136Z"/><path class="cls-2" d="M183.17,87.46H165.34V34.76h-5.78V21.22h51.8L216.14,46l-4.78,24.7H183.17Zm13.05-52.7H183.17V57.28h13.05L198.31,46Z"/><path class="cls-2" d="M224.9,21.22h34.37V34.76H238.45l-.5,3,23.61,6.68L257,70.72H221.91V57.28h21.42l.5-3.19-23.51-6.78Z"/><path class="cls-2" d="M265.54,46l4.68-24.8h39.64l5.08,26.89-30.77,5.18.79,4h28.59V70.72H270.22Zm18.13-4.78L297.31,39l-.89-5.48H285Z"/><path class="cls-2" d="M321.51,0h17.83V70.72H321.51Z"/></g></g></svg>